<svg id="Layer_1" data-name="Layer 1" xmlns="http://www.w3.org/2000/svg" viewBox="0 0 53.32 41.6"><defs><style>.cls-1{fill:#7310ec;}.cls-2,.cls-3,.cls-4{fill:none;stroke:#7310ec;stroke-miterlimit:10;}.cls-2{stroke-width:1.5px;}.cls-3{stroke-width:2px;}</style></defs><title>Artboard 1</title><path class="cls-1" d="M29.15,19.71a8.28,8.28,0,0,1,.7-3.4,8.79,8.79,0,0,1,4.67-4.67,8.28,8.28,0,0,1,3.4-.7H51.34V16.8H37.92a2.86,2.86,0,0,0-1.14.22,2.85,2.85,0,0,0-1.55,1.55A2.93,2.93,0,0,0,35,19.71a3,3,0,0,0,.22,1.16,2.86,2.86,0,0,0,.62.93,2.94,2.94,0,0,0,.93.63,2.86,2.86,0,0,0,1.14.22h5.86a8.69,8.69,0,0,1,3.41.68A8.71,8.71,0,0,1,51.86,28a8.8,8.8,0,0,1,0,6.83A8.73,8.73,0,0,1,50,37.61a8.87,8.87,0,0,1-2.8,1.89,8.52,8.52,0,0,1-3.41.69h-13V34.34h13a3,3,0,0,0,2.07-.85,3,3,0,0,0,.62-3.21,2.85,2.85,0,0,0-1.55-1.55,2.9,2.9,0,0,0-1.14-.22H37.92a8.44,8.44,0,0,1-3.4-.7,8.86,8.86,0,0,1-4.67-4.68A8.41,8.41,0,0,1,29.15,19.71Z"/><polyline class="cls-2" points="44.74 25.6 30.74 25.6 26.74 25.6"/><circle class="cls-2" cx="23.74" cy="25.6" r="3"/><polyline class="cls-3" points="46.24 38.1 31.24 38.1 28.24 38.1 23.24 33.1 18.24 33.1"/><circle class="cls-3" cx="13.74" cy="33.6" r="4.5"/><polyline class="cls-3" points="42.36 14.31 29.74 14.31 23.74 8.6"/><circle class="cls-3" cx="20.74" cy="5.6" r="4"/><line class="cls-4" x1="33.74" y1="18.6" x2="5.74" y2="18.6"/><circle class="cls-4" cx="3.74" cy="18.6" r="2.5"/></svg>