<svg id="Layer_1" data-name="Layer 1" xmlns="http://www.w3.org/2000/svg" viewBox="0 0 201.77 41.95"><defs><style>.cls-1{fill:#7310ec;}.cls-2,.cls-3,.cls-4{fill:none;stroke:#7310ec;stroke-miterlimit:10;}.cls-2{stroke-width:1.5px;}.cls-3{stroke-width:2px;}</style></defs><title>Artboard 1</title><path class="cls-1" d="M29.15,20.06a8.33,8.33,0,0,1,.7-3.41,9,9,0,0,1,1.88-2.78A9.29,9.29,0,0,1,34.52,12a8.44,8.44,0,0,1,3.4-.69H51.34v5.85H37.92a2.87,2.87,0,0,0-1.14.23,3.09,3.09,0,0,0-.93.62,3,3,0,0,0-.62.93A2.86,2.86,0,0,0,35,20.06a2.94,2.94,0,0,0,.22,1.15,2.83,2.83,0,0,0,1.55,1.56,2.87,2.87,0,0,0,1.14.23h5.86a8.51,8.51,0,0,1,3.41.68A8.84,8.84,0,0,1,50,25.56a8.66,8.66,0,0,1,1.87,2.79,8.57,8.57,0,0,1,.69,3.42,8.44,8.44,0,0,1-.69,3.4A8.88,8.88,0,0,1,50,38a9,9,0,0,1-2.8,1.88,8.36,8.36,0,0,1-3.41.7h-13V34.68h13a2.9,2.9,0,0,0,1.14-.22,2.85,2.85,0,0,0,1.55-1.55,2.95,2.95,0,0,0-.62-3.21,3,3,0,0,0-2.07-.85H37.92a8.44,8.44,0,0,1-3.4-.69,8.86,8.86,0,0,1-4.67-4.68A8.41,8.41,0,0,1,29.15,20.06Z"/><path class="cls-1" d="M63.43,35.19a3.11,3.11,0,0,0,.66.14c.21,0,.43,0,.65,0a5.47,5.47,0,0,0,1.57-.23,5.68,5.68,0,0,0,1.42-.64,5.45,5.45,0,0,0,1.18-1,5.34,5.34,0,0,0,.85-1.34l4.08,4.1a10.55,10.55,0,0,1-1.79,2,11.07,11.07,0,0,1-2.18,1.49,10.82,10.82,0,0,1-2.47.93,11.2,11.2,0,0,1-2.66.32,11,11,0,0,1-4.33-.86,10.84,10.84,0,0,1-3.55-2.39,11,11,0,0,1-2.4-3.64,12,12,0,0,1-.88-4.64,12.49,12.49,0,0,1,.88-4.73,10.74,10.74,0,0,1,5.95-6,11.55,11.55,0,0,1,7-.51,11.23,11.23,0,0,1,2.48.94,11.49,11.49,0,0,1,2.19,1.5,11.33,11.33,0,0,1,1.8,2Zm2.86-11.48a3.58,3.58,0,0,0-.77-.18,6.57,6.57,0,0,0-.78,0,5.71,5.71,0,0,0-2.15.41,5.2,5.2,0,0,0-1.76,1.2A5.89,5.89,0,0,0,59.66,27a6.82,6.82,0,0,0-.43,2.46q0,.31,0,.69c0,.27.06.53.1.79a7.71,7.71,0,0,0,.18.76,3.36,3.36,0,0,0,.26.66Z"/><path class="cls-1" d="M81.24,40.54H75.63V10h5.61Z"/><path class="cls-1" d="M90,40.54H84.43V10H90Z"/><path class="cls-1" d="M114.35,29.42a11.69,11.69,0,0,1-.88,4.56,11.42,11.42,0,0,1-2.38,3.65,11.17,11.17,0,0,1-3.54,2.43,11.05,11.05,0,0,1-8.69,0,11.22,11.22,0,0,1-3.55-2.43A11.47,11.47,0,0,1,92.91,34,11.87,11.87,0,0,1,92,29.42a12.05,12.05,0,0,1,.87-4.61,11.51,11.51,0,0,1,2.4-3.66,11.35,11.35,0,0,1,3.55-2.42,10.88,10.88,0,0,1,4.33-.87,11.47,11.47,0,0,1,4.36.82A10.64,10.64,0,0,1,111.09,21a11.1,11.1,0,0,1,2.38,3.65A12.24,12.24,0,0,1,114.35,29.42Zm-5.61,0A6.3,6.3,0,0,0,108.3,27a5.75,5.75,0,0,0-1.19-1.88,5.09,5.09,0,0,0-1.76-1.21,5.87,5.87,0,0,0-4.31,0,5,5,0,0,0-1.75,1.21A5.54,5.54,0,0,0,98.12,27a6.49,6.49,0,0,0-.43,2.43,6.22,6.22,0,0,0,.43,2.35,5.7,5.7,0,0,0,1.17,1.87A5.52,5.52,0,0,0,101,34.9a5.25,5.25,0,0,0,2.15.46,5.41,5.41,0,0,0,2.16-.43,5.5,5.5,0,0,0,1.76-1.2,5.75,5.75,0,0,0,1.19-1.88A6.33,6.33,0,0,0,108.74,29.42Z"/><path class="cls-1" d="M122,40.54h-5.56V18.69h1.34l1.84,2.59a9.94,9.94,0,0,1,6.61-2.55h4.91v5.55h-4.91a4.2,4.2,0,0,0-1.66.33,4.19,4.19,0,0,0-2.24,2.24A4.19,4.19,0,0,0,122,28.5Z"/><path class="cls-1" d="M153.38,40.54H152l-2.17-3a18.27,18.27,0,0,1-1.68,1.34A12.81,12.81,0,0,1,146.32,40a11.21,11.21,0,0,1-2,.72,8.15,8.15,0,0,1-2.09.27,12,12,0,0,1-4.33-.78,10.43,10.43,0,0,1-3.55-2.25,10.81,10.81,0,0,1-2.4-3.62,12.87,12.87,0,0,1-.87-4.88,12.26,12.26,0,0,1,.87-4.68,11.29,11.29,0,0,1,2.4-3.66,10.92,10.92,0,0,1,3.55-2.38,11.21,11.21,0,0,1,4.33-.84,8.9,8.9,0,0,1,2.11.26,10.56,10.56,0,0,1,2,.74,12.07,12.07,0,0,1,1.87,1.1,14.74,14.74,0,0,1,1.66,1.37l2.17-2.6h1.34Zm-5.61-11.12a5.62,5.62,0,0,0-.44-2.21,6.42,6.42,0,0,0-1.19-1.9A5.86,5.86,0,0,0,144.38,24a4.73,4.73,0,0,0-2.16-.5,5.94,5.94,0,0,0-2.15.39A4.66,4.66,0,0,0,138.32,25a5.18,5.18,0,0,0-1.17,1.86,7.72,7.72,0,0,0,0,5.08,5.22,5.22,0,0,0,1.17,1.87A4.91,4.91,0,0,0,140.07,35a5.94,5.94,0,0,0,2.15.39,4.86,4.86,0,0,0,2.16-.5,6.06,6.06,0,0,0,1.76-1.33,6.37,6.37,0,0,0,1.19-1.89A5.71,5.71,0,0,0,147.77,29.42Z"/><path class="cls-1" d="M190.88,40.54H185V34.68H173.32v5.86h-5.83V23a11.43,11.43,0,0,1,.91-4.56,12.11,12.11,0,0,1,2.5-3.72,11.75,11.75,0,0,1,3.71-2.51,11.76,11.76,0,0,1,9.12,0,11.79,11.79,0,0,1,3.72,2.51A11.63,11.63,0,0,1,190,18.44a11.26,11.26,0,0,1,.92,4.56ZM185,28.85V23a5.88,5.88,0,0,0-.46-2.28,5.95,5.95,0,0,0-3.12-3.12,5.86,5.86,0,0,0-4.55,0A6,6,0,0,0,175,18.86a5.8,5.8,0,0,0-1.25,1.86,5.7,5.7,0,0,0-.46,2.28v5.85Z"/><path class="cls-1" d="M200.77,40.54h-5.85V11.29h5.85Z"/><polyline class="cls-2" points="44.74 25.95 30.74 25.95 26.74 25.95"/><circle class="cls-2" cx="23.74" cy="25.95" r="3"/><polyline class="cls-3" points="46.24 38.45 31.24 38.45 28.24 38.45 23.24 33.45 18.24 33.45"/><circle class="cls-3" cx="13.74" cy="33.95" r="4.5"/><polyline class="cls-3" points="42.36 14.65 29.74 14.65 23.74 8.95"/><circle class="cls-3" cx="20.74" cy="5.95" r="4"/><line class="cls-4" x1="33.74" y1="18.95" x2="5.74" y2="18.95"/><circle class="cls-4" cx="3.74" cy="18.95" r="2.5"/></svg>